<svg xmlns="http://www.w3.org/2000/svg" width="256" height="256" viewBox="0 0 256 256" role="img" aria-label="NATURALYTE Logo">
  <defs>
    <linearGradient id="bag" x1="0" y1="0" x2="0" y2="1">
      <stop offset="0%" stop-color="#C69C6D"/>
      <stop offset="100%" stop-color="#8B5E3C"/>
    </linearGradient>
    <linearGradient id="carrot" x1="0" y1="0" x2="0" y2="1">
      <stop offset="0%" stop-color="#FF9F43"/>
      <stop offset="100%" stop-color="#E67E22"/>
    </linearGradient>
    <linearGradient id="leaf" x1="0" y1="0" x2="1" y2="0">
      <stop offset="0%" stop-color="#2ECC71"/>
      <stop offset="100%" stop-color="#27AE60"/>
    </linearGradient>
  </defs>

  <!-- Background circle -->
  <circle cx="128" cy="128" r="120" fill="#1a1a2e"/>

  <!-- Grocery bag -->
  <path d="M64 86 h128 v120 c0 10-8 18-18 18H82c-10 0-18-8-18-18V86z" fill="url(#bag)" stroke="#6E4C32" stroke-width="4" />
  <!-- Bag top fold -->
  <path d="M64 86 l16-20 h96 l16 20z" fill="#AD7A50" stroke="#6E4C32" stroke-width="3"/>

  <!-- Carrot -->
  <path d="M106 78 l20-8 c10-4 16 8 8 14 l-18 14z" fill="url(#carrot)" stroke="#A85A19" stroke-width="2"/>
  <!-- Carrot leaf -->
  <path d="M118 64 c10 -6 22 -6 28 2 c-10 6 -18 8 -28 -2z" fill="url(#leaf)"/>

  <!-- Greens -->
  <ellipse cx="150" cy="70" rx="16" ry="10" fill="url(#leaf)"/>
  <ellipse cx="166" cy="74" rx="12" ry="8" fill="#2ABB66"/>

  <!-- Heart on bag -->
  <path d="M128 140
           c-10 -12 -30 -7 -30 10
           c0 18 30 34 30 34
           s30 -16 30 -34
           c0 -17 -20 -22 -30 -10z"
        fill="#E74C3C" stroke="#B83E31" stroke-width="2"/>

  <!-- Name on bag bottom -->
  <text x="128" y="208" font-size="18" text-anchor="middle" fill="#fafafa" font-family="Inter, Arial, sans-serif" style="letter-spacing:1px;">
    NATURALYTE
  </text>
</svg>